<svg xmlns="http://www.w3.org/2000/svg" xmlns:xlink="http://www.w3.org/1999/xlink" width="144" zoomAndPan="magnify" viewBox="0 0 375 374.999991" height="500" preserveAspectRatio="xMidYMid meet" version="1.0"><defs><g/><clipPath id="db56568ed9"><path d="M 98 55 L 278.914062 55 L 278.914062 213.375 L 98 213.375 Z M 98 55 " clip-rule="nonzero"/></clipPath><clipPath id="6b994aa8e1"><path d="M 216.273438 93.800781 L 279.273438 93.800781 L 279.273438 144.800781 L 216.273438 144.800781 Z M 216.273438 93.800781 " clip-rule="nonzero"/></clipPath></defs><g clip-path="url(#db56568ed9)"><path fill="#ff8a00" d="M 275.441406 168.238281 C 273.660156 169.777344 271.785156 171.203125 269.878906 172.582031 C 265.226562 175.820312 260.679688 179.363281 255.398438 181.644531 C 245.773438 185.660156 234.726562 185.496094 224.863281 182.398438 C 224.019531 145.707031 185.238281 148.597656 171.546875 112.445312 C 171.476562 112.339844 171.429688 112.234375 171.398438 112.117188 C 172.816406 109.757812 173.734375 107.023438 174.058594 104.15625 C 175.710938 93.960938 175.425781 83.003906 171.15625 73.460938 C 168.332031 67.402344 163.972656 61.660156 158.214844 58.152344 C 151.09375 54.367188 142.445312 56.171875 135.207031 58.734375 C 129.898438 61.078125 126 66.136719 120.074219 67.183594 C 118.011719 67.675781 115.980469 67.546875 113.949219 67.417969 C 111.753906 67.277344 109.554688 67.140625 107.292969 67.777344 C 100.3125 69.847656 98.070312 78.414062 100.605469 84.667969 C 102.425781 89.484375 105.605469 93.757812 109.1875 97.414062 C 116.246094 104.363281 126.871094 107.230469 137.035156 107.976562 C 135.382812 110.003906 133.851562 112.152344 132.527344 114.410156 C 127.273438 123.277344 125.292969 133.746094 125.78125 143.96875 C 125.570312 155.328125 127.101562 171.269531 121.667969 181.371094 C 118.074219 186.078125 111.382812 185.613281 106.257812 187.457031 C 98.617188 189.175781 95.929688 198.441406 102.371094 203.34375 C 106.746094 206.835938 112.527344 206.679688 117.835938 206.203125 C 128.699219 205.335938 138.445312 199.429688 146.179688 192.03125 C 150.367188 198.296875 156.429688 203.332031 162.984375 206.960938 C 163.144531 207.042969 163.316406 207.078125 163.488281 207.078125 C 164.019531 207.078125 164.546875 206.734375 164.753906 206.246094 C 165.214844 205.09375 164.191406 204.554688 163.332031 204.007812 C 162.242188 203.253906 161.039062 202.324219 159.863281 201.382812 C 155.605469 198 151.457031 194.320312 148.636719 189.609375 C 154.964844 182.878906 159.765625 174.273438 160.683594 164.980469 C 161.589844 157.507812 156.695312 145.128906 147.414062 150.007812 C 142.78125 152.726562 140.8125 158.195312 139.761719 163.195312 C 137.894531 171.8125 139.578125 181.097656 144.113281 188.636719 C 134.800781 198.007812 121.175781 204.871094 107.769531 201.839844 C 103.855469 200.84375 100.660156 196.183594 104.164062 192.886719 C 106.992188 190.707031 110.808594 190.542969 114.160156 189.648438 C 124.363281 187.953125 127.476562 181.570312 128.859375 172.0625 C 131.210938 157.851562 128.398438 143.3125 130.941406 129.15625 C 132.054688 123.554688 134.179688 118.140625 137.40625 113.410156 C 138.089844 111.84375 140.917969 109.925781 140.476562 108.148438 C 142.390625 108.207031 144.269531 108.191406 146.085938 108.121094 C 147.765625 113.828125 151.875 119.925781 158.421875 120.019531 C 163.121094 119.835938 167.011719 117.671875 169.75 114.414062 C 170.386719 116.59375 171.660156 118.71875 172.492188 120.703125 C 185.546875 149.914062 220.824219 149.648438 221.640625 181.296875 C 211.804688 177.753906 202.648438 172.253906 192.449219 169.789062 C 187.945312 169.296875 183.082031 169.613281 179.148438 172.058594 C 174.449219 174.742188 169.691406 178.601562 169.046875 184.335938 C 168.046875 188.546875 169.226562 192.859375 170.609375 196.847656 C 173.773438 205.773438 182.25 212.710938 191.855469 213.015625 C 192.230469 213.035156 192.601562 213.042969 192.976562 213.042969 C 198.453125 213.042969 203.753906 211.054688 208.539062 208.507812 C 217.125 204.144531 223.757812 195.84375 224.699219 186.097656 C 234.703125 188.96875 245.726562 188.890625 255.488281 185.140625 C 263.53125 181.691406 270.585938 176.203125 277.398438 170.789062 C 279.078125 169.527344 277.039062 166.9375 275.429688 168.238281 Z M 143.652344 163.988281 C 144.65625 159.757812 146.1875 153.894531 151.074219 152.878906 C 155.136719 152.949219 156.261719 158.148438 156.628906 161.40625 C 157.085938 170.53125 152.769531 179.453125 146.664062 186.039062 C 143.453125 179.238281 142.179688 171.402344 143.652344 163.984375 Z M 171.035156 96.46875 C 170.425781 104.890625 169.105469 114.410156 159.164062 116.058594 C 149.957031 115.777344 148.878906 103.578125 147.589844 96.578125 C 147.078125 94.660156 147.914062 90.761719 145.078125 90.761719 C 145.035156 90.761719 144.992188 90.761719 144.945312 90.761719 C 141.941406 91.347656 144.015625 96.121094 143.953125 98.253906 C 144.351562 100.949219 144.847656 103.636719 145.550781 106.269531 C 134.332031 105.796875 121.363281 104.011719 112.5625 96.472656 C 107.664062 91.648438 102.535156 85.414062 102.667969 78.183594 C 102.847656 74.773438 105.136719 71.261719 108.640625 70.613281 C 110.480469 70.375 112.339844 70.484375 114.203125 70.59375 C 116.898438 70.753906 119.597656 70.910156 122.226562 70.011719 C 127.390625 68.71875 131.175781 64.785156 135.75 62.339844 C 141.519531 59.96875 148.367188 58.648438 154.429688 60.644531 C 159.09375 62.480469 162.183594 66.574219 165.1875 70.445312 C 170.265625 78.058594 171.699219 87.472656 171.035156 96.464844 Z M 194.683594 208.914062 C 186.664062 209.527344 178.878906 204.707031 175.519531 197.457031 C 173.507812 193.03125 172.117188 187.964844 173.691406 183.199219 C 174.820312 179.984375 177.632812 177.878906 180.347656 176.03125 C 182.953125 174.144531 186.144531 173.386719 189.324219 173.386719 C 190.355469 173.386719 191.386719 173.46875 192.394531 173.613281 C 202.515625 176.28125 211.699219 181.667969 221.574219 185.09375 C 220.429688 198.636719 207.402344 207.609375 194.683594 208.914062 Z M 194.683594 208.914062 " fill-opacity="1" fill-rule="nonzero"/></g><g clip-path="url(#6b994aa8e1)"><path fill="#ff8a00" d="M 263.371094 93.800781 C 252.949219 93.800781 247.671875 101.464844 247.671875 101.464844 C 247.671875 101.464844 242.398438 93.800781 231.976562 93.800781 C 222.679688 93.800781 216.277344 101.808594 216.277344 111.097656 C 216.277344 121.359375 224.214844 135.171875 247.671875 144.90625 C 271.132812 135.171875 279.070312 121.359375 279.070312 111.097656 C 279.070312 101.808594 272.667969 93.800781 263.371094 93.800781 Z M 248.769531 109.242188 C 249.585938 105.3125 253.609375 102.558594 255.84375 107.238281 C 257.761719 110.863281 252.984375 119.90625 249.335938 114.191406 C 248.449219 112.796875 248.398438 110.8125 248.769531 109.242188 Z M 239.503906 107.238281 C 241.734375 102.558594 245.761719 105.3125 246.574219 109.242188 C 246.945312 110.804688 246.894531 112.789062 246.007812 114.191406 C 242.359375 119.910156 237.585938 110.871094 239.503906 107.238281 Z M 232.390625 115.109375 C 234.0625 110.71875 237.890625 112.90625 238.914062 116.394531 C 239.359375 117.773438 239.460938 119.578125 238.769531 120.898438 C 235.894531 126.328125 230.921875 118.523438 232.390625 115.109375 Z M 255.863281 133.835938 C 254.171875 134.148438 252.1875 133.574219 250.695312 132.410156 C 250.625 132.355469 250.542969 132.296875 250.472656 132.246094 C 249.410156 131.523438 248.546875 131.167969 247.671875 131.167969 C 246.800781 131.167969 245.9375 131.523438 244.875 132.246094 C 244.796875 132.296875 244.722656 132.355469 244.648438 132.410156 C 243.167969 133.574219 241.175781 134.140625 239.484375 133.835938 C 237.367188 133.449219 235.988281 131.386719 236.371094 129.273438 C 237.148438 124.984375 241.421875 119.234375 245.542969 117.5 C 246.226562 117.207031 246.953125 117.070312 247.671875 117.070312 C 248.398438 117.070312 249.125 117.214844 249.800781 117.5 C 253.921875 119.234375 258.195312 124.984375 258.972656 129.273438 C 259.359375 131.386719 257.980469 133.449219 255.863281 133.835938 Z M 256.582031 120.898438 C 255.886719 119.570312 255.988281 117.773438 256.429688 116.394531 C 257.457031 112.90625 261.285156 110.71875 262.957031 115.109375 C 264.425781 118.523438 259.453125 126.328125 256.582031 120.898438 Z M 256.582031 120.898438 " fill-opacity="1" fill-rule="nonzero"/></g><g fill="#ff8a00" fill-opacity="1"><g transform="translate(57.672471, 281.582598)"><g><path d="M 20.15625 -46.765625 C 22.644531 -46.765625 24.757812 -46.140625 26.5 -44.890625 C 28.25 -43.648438 29.582031 -42.035156 30.5 -40.046875 C 31.425781 -38.066406 31.890625 -35.929688 31.890625 -33.640625 C 31.890625 -31.453125 31.515625 -29.507812 30.765625 -27.8125 C 30.015625 -26.125 29 -24.707031 27.71875 -23.5625 C 26.4375 -22.414062 25 -21.550781 23.40625 -20.96875 C 21.820312 -20.394531 20.175781 -20.109375 18.46875 -20.109375 L 11.171875 -20.109375 L 11.171875 0 L 3.75 0 L 3.75 -46.765625 Z M 11.171875 -23.28125 L 16.359375 -23.28125 C 18.335938 -23.28125 19.914062 -23.789062 21.09375 -24.8125 C 22.28125 -25.84375 23.140625 -27.148438 23.671875 -28.734375 C 24.203125 -30.328125 24.46875 -31.960938 24.46875 -33.640625 C 24.46875 -35.285156 24.203125 -36.867188 23.671875 -38.390625 C 23.140625 -39.910156 22.28125 -41.164062 21.09375 -42.15625 C 19.914062 -43.144531 18.335938 -43.640625 16.359375 -43.640625 L 11.171875 -43.640625 Z M 11.171875 -23.28125 "/></g></g></g><g fill="#ff8a00" fill-opacity="1"><g transform="translate(90.188822, 281.582598)"><g><path d="M 25.890625 -7.328125 L 28 -7.328125 L 26.609375 0 L 2.203125 0 L 2.203125 -46.765625 L 25.59375 -46.765625 L 26.96875 -39.4375 L 24.875 -39.4375 C 24.019531 -40.695312 22.847656 -41.625 21.359375 -42.21875 C 19.867188 -42.820312 18.140625 -43.207031 16.171875 -43.375 C 14.210938 -43.550781 12.035156 -43.640625 9.640625 -43.640625 L 9.640625 -26.46875 C 10.867188 -26.46875 12.207031 -26.507812 13.65625 -26.59375 C 15.113281 -26.675781 16.566406 -26.835938 18.015625 -27.078125 C 19.472656 -27.316406 20.800781 -27.691406 22 -28.203125 L 22.96875 -28.203125 L 22.921875 -21.234375 L 22 -21.234375 C 20.769531 -21.773438 19.425781 -22.191406 17.96875 -22.484375 C 16.519531 -22.773438 15.078125 -22.976562 13.640625 -23.09375 C 12.203125 -23.21875 10.867188 -23.28125 9.640625 -23.28125 L 9.640625 -3.125 C 12.171875 -3.125 14.492188 -3.191406 16.609375 -3.328125 C 18.734375 -3.460938 20.585938 -3.828125 22.171875 -4.421875 C 23.765625 -5.023438 25.003906 -5.992188 25.890625 -7.328125 Z M 25.890625 -7.328125 "/></g></g></g><g fill="#ff8a00" fill-opacity="1"><g transform="translate(119.73049, 281.582598)"><g><path d="M 23.125 0 L 15.6875 0 L 15.6875 -43.59375 C 12.675781 -43.550781 10.035156 -43.273438 7.765625 -42.765625 C 5.492188 -42.253906 3.773438 -41.144531 2.609375 -39.4375 L 0.515625 -39.4375 L 1.890625 -46.765625 L 36.875 -46.765625 L 38.25 -39.4375 L 36.15625 -39.4375 C 34.988281 -41.144531 33.273438 -42.253906 31.015625 -42.765625 C 28.765625 -43.273438 26.132812 -43.550781 23.125 -43.59375 Z M 23.125 0 "/></g></g></g><g fill="#ff8a00" fill-opacity="1"><g transform="translate(158.503932, 281.582598)"><g><path d="M 17.59375 0.71875 C 15.707031 0.71875 13.78125 0.4375 11.8125 -0.125 C 9.851562 -0.6875 8.035156 -1.523438 6.359375 -2.640625 C 4.679688 -3.753906 3.296875 -5.128906 2.203125 -6.765625 L 3.234375 -14.109375 L 5.328125 -14.109375 C 6.015625 -11.773438 7.050781 -9.742188 8.4375 -8.015625 C 9.820312 -6.296875 11.398438 -4.972656 13.171875 -4.046875 C 14.953125 -3.128906 16.785156 -2.671875 18.671875 -2.671875 C 20.546875 -2.671875 22.054688 -3.007812 23.203125 -3.6875 C 24.347656 -4.375 25.191406 -5.226562 25.734375 -6.25 C 26.285156 -7.28125 26.5625 -8.304688 26.5625 -9.328125 C 26.5625 -10.703125 26.132812 -12.035156 25.28125 -13.328125 C 24.425781 -14.628906 23.296875 -15.90625 21.890625 -17.15625 C 20.492188 -18.40625 18.957031 -19.644531 17.28125 -20.875 C 15.601562 -22.101562 13.925781 -23.347656 12.25 -24.609375 C 10.582031 -25.878906 9.046875 -27.160156 7.640625 -28.453125 C 6.234375 -29.753906 5.101562 -31.101562 4.25 -32.5 C 3.394531 -33.90625 2.96875 -35.363281 2.96875 -36.875 C 2.96875 -39.257812 3.609375 -41.238281 4.890625 -42.8125 C 6.179688 -44.382812 7.859375 -45.5625 9.921875 -46.34375 C 11.992188 -47.132812 14.222656 -47.53125 16.609375 -47.53125 C 18.523438 -47.53125 20.441406 -47.316406 22.359375 -46.890625 C 24.273438 -46.460938 26.0625 -45.835938 27.71875 -45.015625 C 29.375 -44.203125 30.75 -43.179688 31.84375 -41.953125 L 30.8125 -35.171875 L 28.671875 -35.171875 C 28.148438 -37.191406 27.1875 -38.894531 25.78125 -40.28125 C 24.382812 -41.664062 22.804688 -42.71875 21.046875 -43.4375 C 19.285156 -44.15625 17.585938 -44.515625 15.953125 -44.515625 C 14.171875 -44.515625 12.640625 -44.066406 11.359375 -43.171875 C 10.078125 -42.285156 9.4375 -40.9375 9.4375 -39.125 C 9.4375 -38.164062 9.84375 -37.179688 10.65625 -36.171875 C 11.476562 -35.171875 12.566406 -34.128906 13.921875 -33.046875 C 15.273438 -31.972656 16.757812 -30.84375 18.375 -29.65625 C 20 -28.476562 21.632812 -27.25 23.28125 -25.96875 C 24.925781 -24.6875 26.429688 -23.34375 27.796875 -21.9375 C 29.160156 -20.539062 30.28125 -19.0625 31.15625 -17.5 C 32.03125 -15.945312 32.5 -14.316406 32.5625 -12.609375 C 32.664062 -9.878906 32.03125 -7.515625 30.65625 -5.515625 C 29.289062 -3.515625 27.453125 -1.972656 25.140625 -0.890625 C 22.835938 0.179688 20.320312 0.71875 17.59375 0.71875 Z M 17.59375 0.71875 "/></g></g></g><g fill="#ff8a00" fill-opacity="1"><g transform="translate(192.815341, 281.582598)"><g><path d="M 25.890625 -7.328125 L 28 -7.328125 L 26.609375 0 L 2.203125 0 L 2.203125 -46.765625 L 25.59375 -46.765625 L 26.96875 -39.4375 L 24.875 -39.4375 C 24.019531 -40.695312 22.847656 -41.625 21.359375 -42.21875 C 19.867188 -42.820312 18.140625 -43.207031 16.171875 -43.375 C 14.210938 -43.550781 12.035156 -43.640625 9.640625 -43.640625 L 9.640625 -26.46875 C 10.867188 -26.46875 12.207031 -26.507812 13.65625 -26.59375 C 15.113281 -26.675781 16.566406 -26.835938 18.015625 -27.078125 C 19.472656 -27.316406 20.800781 -27.691406 22 -28.203125 L 22.96875 -28.203125 L 22.921875 -21.234375 L 22 -21.234375 C 20.769531 -21.773438 19.425781 -22.191406 17.96875 -22.484375 C 16.519531 -22.773438 15.078125 -22.976562 13.640625 -23.09375 C 12.203125 -23.21875 10.867188 -23.28125 9.640625 -23.28125 L 9.640625 -3.125 C 12.171875 -3.125 14.492188 -3.191406 16.609375 -3.328125 C 18.734375 -3.460938 20.585938 -3.828125 22.171875 -4.421875 C 23.765625 -5.023438 25.003906 -5.992188 25.890625 -7.328125 Z M 25.890625 -7.328125 "/></g></g></g><g fill="#ff8a00" fill-opacity="1"><g transform="translate(222.357009, 281.582598)"><g><path d="M 22.875 -21.6875 C 24.269531 -21.3125 25.359375 -20.679688 26.140625 -19.796875 C 26.929688 -18.910156 27.523438 -17.84375 27.921875 -16.59375 C 28.316406 -15.34375 28.625 -13.988281 28.84375 -12.53125 C 29.0625 -11.082031 29.273438 -9.601562 29.484375 -8.09375 C 29.691406 -6.59375 29.988281 -5.148438 30.375 -3.765625 C 30.769531 -2.378906 31.378906 -1.125 32.203125 0 L 24.96875 0 C 24.082031 -1.164062 23.453125 -2.457031 23.078125 -3.875 C 22.703125 -5.289062 22.445312 -6.75 22.3125 -8.25 C 22.175781 -9.757812 22.03125 -11.210938 21.875 -12.609375 C 21.71875 -14.015625 21.425781 -15.28125 21 -16.40625 C 20.570312 -17.539062 19.867188 -18.441406 18.890625 -19.109375 C 17.921875 -19.773438 16.53125 -20.109375 14.71875 -20.109375 L 9.640625 -20.109375 L 9.640625 0 L 2.203125 0 L 2.203125 -46.765625 L 19.03125 -46.765625 C 21.519531 -46.765625 23.601562 -46.140625 25.28125 -44.890625 C 26.957031 -43.648438 28.222656 -42.035156 29.078125 -40.046875 C 29.929688 -38.066406 30.359375 -35.929688 30.359375 -33.640625 C 30.359375 -30.628906 29.671875 -28.125 28.296875 -26.125 C 26.929688 -24.125 25.125 -22.644531 22.875 -21.6875 Z M 9.640625 -43.640625 L 9.640625 -23.28125 L 14.8125 -23.28125 C 16.800781 -23.28125 18.382812 -23.789062 19.5625 -24.8125 C 20.738281 -25.84375 21.59375 -27.148438 22.125 -28.734375 C 22.65625 -30.328125 22.921875 -31.960938 22.921875 -33.640625 C 22.921875 -35.285156 22.65625 -36.867188 22.125 -38.390625 C 21.59375 -39.910156 20.738281 -41.164062 19.5625 -42.15625 C 18.382812 -43.144531 16.800781 -43.640625 14.8125 -43.640625 Z M 9.640625 -43.640625 "/></g></g></g><g fill="#ff8a00" fill-opacity="1"><g transform="translate(255.745246, 281.582598)"><g><path d="M 19.03125 -0.046875 L 11.125 0 L 0.15625 -46.765625 L 7.59375 -46.765625 L 17.234375 -5.390625 L 22.046875 -23.796875 L 25.640625 -46.765625 L 31.390625 -46.765625 L 26.25 -27.234375 Z M 19.03125 -0.046875 "/></g></g><g transform="translate(287.748722, 281.582598)"><g><path d="M 25.890625 -7.328125 L 28 -7.328125 L 26.609375 0 L 2.203125 0 L 2.203125 -46.765625 L 25.59375 -46.765625 L 26.96875 -39.4375 L 24.875 -39.4375 C 24.019531 -40.695312 22.847656 -41.625 21.359375 -42.21875 C 19.867188 -42.820312 18.140625 -43.207031 16.171875 -43.375 C 14.210938 -43.550781 12.035156 -43.640625 9.640625 -43.640625 L 9.640625 -26.46875 C 10.867188 -26.46875 12.207031 -26.507812 13.65625 -26.59375 C 15.113281 -26.675781 16.566406 -26.835938 18.015625 -27.078125 C 19.472656 -27.316406 20.800781 -27.691406 22 -28.203125 L 22.96875 -28.203125 L 22.921875 -21.234375 L 22 -21.234375 C 20.769531 -21.773438 19.425781 -22.191406 17.96875 -22.484375 C 16.519531 -22.773438 15.078125 -22.976562 13.640625 -23.09375 C 12.203125 -23.21875 10.867188 -23.28125 9.640625 -23.28125 L 9.640625 -3.125 C 12.171875 -3.125 14.492188 -3.191406 16.609375 -3.328125 C 18.734375 -3.460938 20.585938 -3.828125 22.171875 -4.421875 C 23.765625 -5.023438 25.003906 -5.992188 25.890625 -7.328125 Z M 25.890625 -7.328125 "/></g></g></g></svg>